<svg id="Layer_1" enable-background="new 0 0 512.114 512.114" height="512" viewBox="0 0 512.114 512.114" width="512" xmlns="http://www.w3.org/2000/svg"><g><path d="m226.775 290.489c-1.306-.516-2.718.456-2.718 1.86v11.708c0 17.64 14.35 32 32 32s32-14.36 32-32v-11.709c0-1.405-1.412-2.375-2.719-1.859-18.571 7.332-39.527 7.52-58.563 0z"/><path d="m320.057 215.086v-43.095c0-.987-.292-1.952-.839-2.773l-7.492-11.242c-.646-.97-1.973-1.171-2.897-.46-15.631 12.025-34.674 18.541-54.712 18.541h-59.06c-1.657 0-3 1.343-3 3v37c0 35.621 29.25 64.537 64.993 63.992 35.118-.535 63.007-29.842 63.007-64.963z"/><path d="m208.057 301.055v-19.567c0-.928-.436-1.795-1.167-2.366-18.755-14.654-30.833-37.472-30.833-63.065v-48c0-4.418 3.582-8 8-8h70.06c19.75 0 38.32-7.69 52.28-21.66 3.639-3.617 9.561-2.907 12.32 1.22 16.993 25.489 17.34 25.116 17.34 28.44v48c0 25.593-12.077 48.411-30.833 63.065-.731.571-1.167 1.438-1.167 2.366v19.566c0 1.659 1.352 3.003 3.011 3 24.873-.043 32.142-.555 42.448 2.269 1.276.35 2.541-.599 2.541-1.922v-135.119c0-52.848-42.195-96.702-95.041-97.22-53.368-.524-96.959 42.746-96.959 95.995v136.337c0 1.316 1.253 2.282 2.521 1.93 9.865-2.735 16.25-2.304 42.468-2.27 1.658.003 3.011-1.341 3.011-2.999z"/><path d="m332.057 320.057h-28.682c-1.206 0-2.312.716-2.762 1.835-7.099 17.658-24.388 30.165-44.556 30.165s-37.457-12.507-44.556-30.165c-.45-1.119-1.556-1.835-2.762-1.835h-28.682c-28.719 0-52 23.281-52 52v25.753c0 .863.369 1.69 1.016 2.261 72.51 64.028 181.535 63.96 253.969 0 .647-.571 1.016-1.398 1.016-2.261v-25.753c-.001-28.719-23.282-52-52.001-52z"/><path d="m437.077 75.037c-100.045-100.045-261.986-100.054-362.04 0-100.045 100.045-100.054 261.986 0 362.04 100.044 100.045 261.986 100.055 362.04 0 100.046-100.045 100.054-261.986 0-362.04zm-37.02 327.66c0 2.221-.93 4.351-2.56 5.86-79.667 73.963-203.113 74.056-282.88 0-1.63-1.51-2.56-3.64-2.56-5.86v-30.64c0-23.725 12.214-44.644 30.684-56.808.886-.584 1.418-1.566 1.381-2.627-.162-4.615-.066-26.573-.065-143.327 0-61.804 49.547-112.883 111.35-113.236 62.057-.354 112.65 50.022 112.65 111.998 0 117.795.092 139.939-.069 144.575-.037 1.056.499 2.034 1.381 2.615 18.472 12.164 30.688 33.084 30.688 56.81z"/></g></svg>